# xmcd
#
# Track frame offsets: 
#        150
#        15605
#        31131
#        45142
#        65134
#        83629
#        97250
#        114438
#        129939
#        150646
#        163367
#        179909
#        196662
#        212069
#        223968
#        239531
#        256792
#        270607
#        287865
#        304284
#        325571
#        354659
#
# Disc length: 4736 seconds
#
# Revision: 2
# Processed by: cddbd v1.5.2PL0 Copyright (c) Steve Scherf et al.
# Submitted via: ExactAudioCopy v0.99pb5
#
DISCID=45127e16
DTITLE=Various Artist - This Is Americana [1]
DYEAR=2004
DGENRE=Americana
TTITLE0=BR549 - That's What I Get
TTITLE1=Slaid Cleaves - Wishbones
TTITLE2=Willie Nelson and Ray Price - I'm So Ashamed
TTITLE3=Tift Merritt - Ain't Looking Closely
TTITLE4=Nitty Gritty Dirt Band - Gold Watch and Chain
TTITLE5=Allison Krauss and Union Station - Every Time You Say Goodbye
TTITLE6=Danny Barnes - Life in the Country
TTITLE7=Jayhawks - All the Right Reasons
TTITLE8=Anne McCue - Stupid
TTITLE9=Notorious Cherry Bombs - Wait a Minute
TTITLE10=Rosanne Cash - September When It Comes
TTITLE11=Fairfax - If I Die
TTITLE12=Jay Farrar - Doesn't Have to Be This Way
TTITLE13=Ralph Stanley - Wild Geese Cry
TTITLE14=Jim Lauderdale - Trashcan Tomcat
TTITLE15=Shelby Lynne - Telephone
TTITLE16=King Wilkie - Broke Down and Lonesome
TTITLE17=Lori McKenna - Bible Song
TTITLE18=Junior Brown - Little Red Rivi Airhead
TTITLE19=Lucinda Williams - Ventura
TTITLE20=Arthur Godfrey - Amen
TTITLE21=None - Data
EXTD=
EXTT0=
EXTT1=
EXTT2=
EXTT3=
EXTT4=
EXTT5=
EXTT6=
EXTT7=
EXTT8=
EXTT9=
EXTT10=
EXTT11=
EXTT12=
EXTT13=
EXTT14=
EXTT15=
EXTT16=
EXTT17=
EXTT18=
EXTT19=
EXTT20=
EXTT21=
PLAYORDER=
